<?xml version="1.0" standalone="no"?>
<!DOCTYPE svg PUBLIC "-//W3C//DTD SVG 20010904//EN"
 "http://www.w3.org/TR/2001/REC-SVG-20010904/DTD/svg10.dtd">
<svg version="1.0" xmlns="http://www.w3.org/2000/svg"
 width="159.000000pt" height="159.000000pt" viewBox="0 0 159.000000 159.000000"
 preserveAspectRatio="xMidYMid meet">
<metadata>
Created by potrace 1.14, written by Peter Selinger 2001-2017
</metadata>
<g transform="translate(0.000000,159.000000) scale(0.100000,-0.100000)"
fill="#000000" stroke="none">
<path d="M638 1570 c-91 -31 -146 -71 -205 -146 -85 -108 -90 -199 -24 -410
l45 -141 131 -52 c72 -28 134 -51 138 -51 3 0 -8 39 -24 88 -110 325 -118 408
-47 483 91 94 243 47 256 -80 5 -57 -19 -107 -63 -131 -14 -7 -25 -16 -25 -19
0 -13 282 -163 290 -155 42 43 85 196 76 267 -10 73 -14 87 -42 143 -37 75
-108 145 -189 185 -60 29 -78 33 -164 36 -75 2 -109 -2 -153 -17z"/>
<path d="M922 787 l3 -100 107 -43 c138 -53 162 -60 155 -40 -6 16 -43 168
-51 208 -2 13 -7 35 -11 50 l-7 26 -99 0 -100 -1 3 -100z"/>
<path d="M1384 861 c-3 -14 -11 -44 -16 -66 -6 -22 -12 -50 -14 -63 -3 -12
-14 -61 -25 -108 -11 -47 -19 -87 -17 -89 2 -2 26 -13 55 -24 l52 -20 15 62
15 62 -2 -65 -2 -65 47 -22 c26 -12 58 -25 72 -29 l24 -6 -1 230 0 230 -99 0
c-98 0 -98 0 -104 -27z"/>
<path d="M502 708 c92 -282 100 -330 61 -408 -55 -110 -201 -120 -263 -17 -38
62 -16 155 45 187 14 7 25 16 25 20 0 6 -71 48 -195 115 -27 15 -56 32 -62 37
-21 17 -40 2 -66 -54 -34 -72 -45 -124 -41 -197 10 -204 166 -362 374 -378
137 -10 261 37 349 133 73 80 95 133 96 229 0 68 -7 100 -45 217 l-45 137
-130 50 c-71 28 -133 51 -136 51 -4 0 11 -55 33 -122z"/>
<path d="M920 339 l0 -304 75 0 75 -1 1 41 c1 56 -2 263 -6 365 -2 47 -4 100
-4 118 -1 29 -6 35 -47 52 -25 11 -57 23 -70 26 l-24 6 0 -303z"/>
<path d="M1075 562 c3 -15 34 -139 68 -277 l62 -250 49 0 c26 0 50 4 52 10 2
5 26 99 53 208 l49 199 -46 19 c-25 11 -51 18 -57 15 -6 -2 -17 -35 -25 -72
-8 -38 -15 -72 -16 -76 -1 -5 -2 -14 -4 -20 -2 -13 -16 26 -24 67 -11 51 -35
147 -38 150 -2 2 -31 15 -66 29 l-63 25 6 -27z"/>
<path d="M1441 358 c-5 -144 -4 -305 2 -315 3 -5 36 -9 74 -8 l68 1 2 165 c0
91 -2 170 -5 175 -6 8 -125 64 -136 64 -1 0 -3 -37 -5 -82z"/>
</g>
</svg>
